<mxfile host="app.diagrams.net" agent="Mozilla/5.0 (X11; Linux x86_64) AppleWebKit/537.36 (KHTML, like Gecko) Chrome/137.0.0.0 Safari/537.36" version="27.1.6">
  <diagram name="Page-1" id="NipN5fTp9PLxG7IVd8oc">
    <mxGraphModel dx="1892" dy="1236" grid="1" gridSize="10" guides="1" tooltips="1" connect="1" arrows="1" fold="1" page="1" pageScale="1" pageWidth="1169" pageHeight="827" math="0" shadow="0">
      <root>
        <mxCell id="0" />
        <mxCell id="1" parent="0" />
        <mxCell id="0PBgmSTMqWtycvxxDNwt-22" value="" style="rounded=0;whiteSpace=wrap;html=1;" vertex="1" parent="1">
          <mxGeometry x="240" y="240" width="720" height="400" as="geometry" />
        </mxCell>
        <mxCell id="0PBgmSTMqWtycvxxDNwt-1" value="Map" style="rounded=0;whiteSpace=wrap;html=1;" vertex="1" parent="1">
          <mxGeometry x="280" y="320" width="160" height="80" as="geometry" />
        </mxCell>
        <mxCell id="0PBgmSTMqWtycvxxDNwt-2" value="Inventory" style="rounded=0;whiteSpace=wrap;html=1;" vertex="1" parent="1">
          <mxGeometry x="520" y="320" width="160" height="80" as="geometry" />
        </mxCell>
        <mxCell id="0PBgmSTMqWtycvxxDNwt-3" value="Shop" style="rounded=0;whiteSpace=wrap;html=1;" vertex="1" parent="1">
          <mxGeometry x="760" y="320" width="160" height="80" as="geometry" />
        </mxCell>
        <mxCell id="0PBgmSTMqWtycvxxDNwt-4" value="Warehouse" style="rounded=0;whiteSpace=wrap;html=1;" vertex="1" parent="1">
          <mxGeometry x="520" y="480" width="160" height="80" as="geometry" />
        </mxCell>
        <mxCell id="0PBgmSTMqWtycvxxDNwt-5" value="" style="endArrow=classic;html=1;rounded=0;exitX=1;exitY=0.25;exitDx=0;exitDy=0;entryX=0;entryY=0.25;entryDx=0;entryDy=0;" edge="1" parent="1" source="0PBgmSTMqWtycvxxDNwt-1" target="0PBgmSTMqWtycvxxDNwt-2">
          <mxGeometry width="50" height="50" relative="1" as="geometry">
            <mxPoint x="520" y="520" as="sourcePoint" />
            <mxPoint x="570" y="470" as="targetPoint" />
          </mxGeometry>
        </mxCell>
        <mxCell id="0PBgmSTMqWtycvxxDNwt-8" value="Pick Item" style="edgeLabel;html=1;align=center;verticalAlign=middle;resizable=0;points=[];" vertex="1" connectable="0" parent="0PBgmSTMqWtycvxxDNwt-5">
          <mxGeometry x="-0.55" relative="1" as="geometry">
            <mxPoint x="22" as="offset" />
          </mxGeometry>
        </mxCell>
        <mxCell id="0PBgmSTMqWtycvxxDNwt-7" value="" style="endArrow=classic;html=1;rounded=0;entryX=1;entryY=0.75;entryDx=0;entryDy=0;exitX=0;exitY=0.75;exitDx=0;exitDy=0;" edge="1" parent="1" source="0PBgmSTMqWtycvxxDNwt-2" target="0PBgmSTMqWtycvxxDNwt-1">
          <mxGeometry width="50" height="50" relative="1" as="geometry">
            <mxPoint x="520" y="520" as="sourcePoint" />
            <mxPoint x="570" y="470" as="targetPoint" />
          </mxGeometry>
        </mxCell>
        <mxCell id="0PBgmSTMqWtycvxxDNwt-9" value="Drop Item" style="edgeLabel;html=1;align=center;verticalAlign=middle;resizable=0;points=[];" vertex="1" connectable="0" parent="0PBgmSTMqWtycvxxDNwt-7">
          <mxGeometry x="-0.15" y="-2" relative="1" as="geometry">
            <mxPoint x="-6" as="offset" />
          </mxGeometry>
        </mxCell>
        <mxCell id="0PBgmSTMqWtycvxxDNwt-10" value="" style="endArrow=classic;html=1;rounded=0;entryX=0;entryY=0.75;entryDx=0;entryDy=0;exitX=1;exitY=0.75;exitDx=0;exitDy=0;" edge="1" parent="1" source="0PBgmSTMqWtycvxxDNwt-2" target="0PBgmSTMqWtycvxxDNwt-3">
          <mxGeometry width="50" height="50" relative="1" as="geometry">
            <mxPoint x="600" y="460" as="sourcePoint" />
            <mxPoint x="650" y="410" as="targetPoint" />
          </mxGeometry>
        </mxCell>
        <mxCell id="0PBgmSTMqWtycvxxDNwt-11" value="Sell Item" style="edgeLabel;html=1;align=center;verticalAlign=middle;resizable=0;points=[];" vertex="1" connectable="0" parent="0PBgmSTMqWtycvxxDNwt-10">
          <mxGeometry x="-0.4" y="-3" relative="1" as="geometry">
            <mxPoint x="16" y="-3" as="offset" />
          </mxGeometry>
        </mxCell>
        <mxCell id="0PBgmSTMqWtycvxxDNwt-12" value="" style="endArrow=classic;html=1;rounded=0;exitX=0;exitY=0.25;exitDx=0;exitDy=0;entryX=1;entryY=0.25;entryDx=0;entryDy=0;" edge="1" parent="1" source="0PBgmSTMqWtycvxxDNwt-3" target="0PBgmSTMqWtycvxxDNwt-2">
          <mxGeometry width="50" height="50" relative="1" as="geometry">
            <mxPoint x="600" y="460" as="sourcePoint" />
            <mxPoint x="650" y="410" as="targetPoint" />
          </mxGeometry>
        </mxCell>
        <mxCell id="0PBgmSTMqWtycvxxDNwt-13" value="Buy Item" style="edgeLabel;html=1;align=center;verticalAlign=middle;resizable=0;points=[];" vertex="1" connectable="0" parent="0PBgmSTMqWtycvxxDNwt-12">
          <mxGeometry x="0.325" y="-2" relative="1" as="geometry">
            <mxPoint x="13" as="offset" />
          </mxGeometry>
        </mxCell>
        <mxCell id="0PBgmSTMqWtycvxxDNwt-14" value="" style="endArrow=classic;html=1;rounded=0;exitX=0.25;exitY=0;exitDx=0;exitDy=0;entryX=0.75;entryY=0;entryDx=0;entryDy=0;" edge="1" parent="1" source="0PBgmSTMqWtycvxxDNwt-2" target="0PBgmSTMqWtycvxxDNwt-2">
          <mxGeometry width="50" height="50" relative="1" as="geometry">
            <mxPoint x="560" y="320" as="sourcePoint" />
            <mxPoint x="640" y="320" as="targetPoint" />
            <Array as="points">
              <mxPoint x="560" y="280" />
              <mxPoint x="640" y="280" />
            </Array>
          </mxGeometry>
        </mxCell>
        <mxCell id="0PBgmSTMqWtycvxxDNwt-15" value="Move" style="edgeLabel;html=1;align=center;verticalAlign=middle;resizable=0;points=[];" vertex="1" connectable="0" parent="0PBgmSTMqWtycvxxDNwt-14">
          <mxGeometry relative="1" as="geometry">
            <mxPoint as="offset" />
          </mxGeometry>
        </mxCell>
        <mxCell id="0PBgmSTMqWtycvxxDNwt-17" value="" style="endArrow=classic;startArrow=classic;html=1;rounded=0;entryX=0.5;entryY=1;entryDx=0;entryDy=0;exitX=0.5;exitY=0;exitDx=0;exitDy=0;" edge="1" parent="1" source="0PBgmSTMqWtycvxxDNwt-4" target="0PBgmSTMqWtycvxxDNwt-2">
          <mxGeometry width="50" height="50" relative="1" as="geometry">
            <mxPoint x="600" y="460" as="sourcePoint" />
            <mxPoint x="650" y="410" as="targetPoint" />
          </mxGeometry>
        </mxCell>
        <mxCell id="0PBgmSTMqWtycvxxDNwt-18" value="Move" style="edgeLabel;html=1;align=center;verticalAlign=middle;resizable=0;points=[];" vertex="1" connectable="0" parent="0PBgmSTMqWtycvxxDNwt-17">
          <mxGeometry x="0.3" y="1" relative="1" as="geometry">
            <mxPoint x="1" y="12" as="offset" />
          </mxGeometry>
        </mxCell>
        <mxCell id="0PBgmSTMqWtycvxxDNwt-20" value="" style="endArrow=classic;html=1;rounded=0;exitX=0.75;exitY=1;exitDx=0;exitDy=0;entryX=0.25;entryY=1;entryDx=0;entryDy=0;" edge="1" parent="1">
          <mxGeometry width="50" height="50" relative="1" as="geometry">
            <mxPoint x="640" y="560" as="sourcePoint" />
            <mxPoint x="560" y="560" as="targetPoint" />
            <Array as="points">
              <mxPoint x="640" y="600" />
              <mxPoint x="560" y="600" />
            </Array>
          </mxGeometry>
        </mxCell>
        <mxCell id="0PBgmSTMqWtycvxxDNwt-21" value="Move" style="edgeLabel;html=1;align=center;verticalAlign=middle;resizable=0;points=[];" vertex="1" connectable="0" parent="0PBgmSTMqWtycvxxDNwt-20">
          <mxGeometry x="0.0625" relative="1" as="geometry">
            <mxPoint x="5" as="offset" />
          </mxGeometry>
        </mxCell>
      </root>
    </mxGraphModel>
  </diagram>
</mxfile>
